<?xml version="1.0" standalone="no"?>
<!DOCTYPE svg PUBLIC "-//W3C//DTD SVG 20010904//EN"
 "http://www.w3.org/TR/2001/REC-SVG-20010904/DTD/svg10.dtd">
<svg version="1.0" xmlns="http://www.w3.org/2000/svg"
 width="297.000000pt" height="169.000000pt" viewBox="0 0 297.000000 169.000000"
 preserveAspectRatio="xMidYMid meet">
<metadata>
Created by potrace 1.15, written by Peter Selinger 2001-2017
</metadata>
<g transform="translate(0.000000,169.000000) scale(0.100000,-0.100000)"
fill="#000000" stroke="none">
<path d="M1465 1413 c-11 -3 -125 -64 -252 -136 -206 -116 -263 -157 -220
-157 6 0 102 52 212 116 110 64 219 125 242 136 51 23 25 33 314 -133 113 -66
211 -119 217 -119 29 0 7 29 -45 59 -195 111 -411 230 -428 234 -11 2 -29 2
-40 0z"/>
<path d="M1407 1239 c-71 -47 -152 -161 -172 -241 -8 -31 23 -68 56 -68 11 0
35 -11 53 -25 35 -27 77 -32 123 -14 25 9 31 7 50 -16 27 -31 29 -26 8 16 -9
16 -13 34 -10 39 3 5 -10 3 -29 -5 -42 -18 -109 -19 -138 -4 -17 9 -18 13 -7
20 10 6 8 9 -9 9 -34 0 -62 18 -62 39 0 39 33 108 83 174 60 79 88 97 151 97
38 0 48 -4 62 -25 15 -23 15 -27 2 -43 -9 -9 -13 -22 -11 -29 7 -20 -31 -20
-70 1 l-38 20 -24 -29 c-15 -19 -22 -38 -19 -51 3 -12 -1 -26 -10 -33 -30 -25
-16 -30 27 -11 56 26 97 26 104 0 5 -19 7 -18 40 10 27 24 43 30 81 30 34 0
43 3 32 10 -26 17 -86 11 -114 -11 -23 -18 -31 -19 -55 -9 -16 6 -42 10 -57 8
-33 -4 -42 17 -20 47 13 18 15 19 53 1 31 -13 45 -15 67 -6 15 5 26 16 23 23
-2 6 2 20 10 29 14 15 13 20 -7 47 -19 28 -27 31 -74 31 -42 0 -62 -6 -99 -31z"/>
<path d="M1090 961 c0 -151 2 -171 19 -192 l19 -24 355 0 c335 0 356 1 376 19
20 18 21 29 21 193 0 109 -4 173 -10 173 -6 0 -10 -59 -10 -158 0 -126 -3
-162 -16 -180 l-15 -22 -344 0 -344 0 -15 22 c-13 18 -16 54 -16 180 0 99 -4
158 -10 158 -6 0 -10 -63 -10 -169z"/>
</g>
</svg>
